<mxfile host="app.diagrams.net" agent="Mozilla/5.0 (Windows NT 10.0; Win64; x64) AppleWebKit/537.36 (KHTML, like Gecko) Chrome/128.0.0.0 Safari/537.36" version="24.7.8">
  <diagram name="Página-1" id="ok5xEjFsNEebNc8XlY9Y">
    <mxGraphModel dx="1050" dy="522" grid="1" gridSize="10" guides="1" tooltips="1" connect="1" arrows="1" fold="1" page="1" pageScale="1" pageWidth="827" pageHeight="1169" math="0" shadow="0">
      <root>
        <mxCell id="0" />
        <mxCell id="1" parent="0" />
        <mxCell id="r_FRqhxzbS6lwTigyeX3-1" value="Usuário" style="shape=umlActor;verticalLabelPosition=bottom;verticalAlign=top;html=1;outlineConnect=0;" parent="1" vertex="1">
          <mxGeometry x="39" y="280" width="70" height="130" as="geometry" />
        </mxCell>
        <mxCell id="r_FRqhxzbS6lwTigyeX3-3" value="Realizar Cadastro" style="ellipse;whiteSpace=wrap;html=1;" parent="1" vertex="1">
          <mxGeometry x="354" y="50" width="120" height="80" as="geometry" />
        </mxCell>
        <mxCell id="r_FRqhxzbS6lwTigyeX3-15" style="edgeStyle=orthogonalEdgeStyle;rounded=0;orthogonalLoop=1;jettySize=auto;html=1;entryX=0.5;entryY=1;entryDx=0;entryDy=0;dashed=1;curved=1;" parent="1" source="r_FRqhxzbS6lwTigyeX3-4" target="r_FRqhxzbS6lwTigyeX3-3" edge="1">
          <mxGeometry relative="1" as="geometry" />
        </mxCell>
        <mxCell id="r_FRqhxzbS6lwTigyeX3-4" value="Efetuar Login" style="ellipse;whiteSpace=wrap;html=1;" parent="1" vertex="1">
          <mxGeometry x="570" y="240" width="120" height="80" as="geometry" />
        </mxCell>
        <mxCell id="r_FRqhxzbS6lwTigyeX3-17" style="edgeStyle=orthogonalEdgeStyle;rounded=0;orthogonalLoop=1;jettySize=auto;html=1;entryX=0.5;entryY=0;entryDx=0;entryDy=0;dashed=1;curved=1;" parent="1" source="r_FRqhxzbS6lwTigyeX3-5" target="r_FRqhxzbS6lwTigyeX3-6" edge="1">
          <mxGeometry relative="1" as="geometry" />
        </mxCell>
        <mxCell id="r_FRqhxzbS6lwTigyeX3-5" value="Alterar Status Ativos" style="ellipse;whiteSpace=wrap;html=1;" parent="1" vertex="1">
          <mxGeometry x="530" y="350" width="120" height="80" as="geometry" />
        </mxCell>
        <mxCell id="r_FRqhxzbS6lwTigyeX3-23" style="edgeStyle=orthogonalEdgeStyle;rounded=0;orthogonalLoop=1;jettySize=auto;html=1;entryX=0.5;entryY=0;entryDx=0;entryDy=0;curved=1;dashed=1;" parent="1" source="r_FRqhxzbS6lwTigyeX3-6" target="r_FRqhxzbS6lwTigyeX3-7" edge="1">
          <mxGeometry relative="1" as="geometry" />
        </mxCell>
        <mxCell id="r_FRqhxzbS6lwTigyeX3-24" style="edgeStyle=orthogonalEdgeStyle;rounded=0;orthogonalLoop=1;jettySize=auto;html=1;entryX=1;entryY=0.5;entryDx=0;entryDy=0;curved=1;dashed=1;" parent="1" source="r_FRqhxzbS6lwTigyeX3-6" target="r_FRqhxzbS6lwTigyeX3-8" edge="1">
          <mxGeometry relative="1" as="geometry">
            <mxPoint x="490" y="790" as="targetPoint" />
            <Array as="points">
              <mxPoint x="540" y="590" />
              <mxPoint x="540" y="775" />
              <mxPoint x="620" y="775" />
              <mxPoint x="620" y="960" />
            </Array>
          </mxGeometry>
        </mxCell>
        <mxCell id="r_FRqhxzbS6lwTigyeX3-6" value="Inserir Ativos" style="ellipse;whiteSpace=wrap;html=1;" parent="1" vertex="1">
          <mxGeometry x="420" y="560" width="120" height="80" as="geometry" />
        </mxCell>
        <mxCell id="r_FRqhxzbS6lwTigyeX3-7" value="Atualizar Ativos&amp;nbsp;" style="ellipse;whiteSpace=wrap;html=1;" parent="1" vertex="1">
          <mxGeometry x="390" y="820" width="120" height="80" as="geometry" />
        </mxCell>
        <mxCell id="r_FRqhxzbS6lwTigyeX3-8" value="Validar Ativos" style="ellipse;whiteSpace=wrap;html=1;" parent="1" vertex="1">
          <mxGeometry x="260" y="980" width="120" height="80" as="geometry" />
        </mxCell>
        <mxCell id="r_FRqhxzbS6lwTigyeX3-9" value="" style="endArrow=none;html=1;rounded=0;entryX=0;entryY=0.5;entryDx=0;entryDy=0;edgeStyle=orthogonalEdgeStyle;curved=1;" parent="1" source="r_FRqhxzbS6lwTigyeX3-1" target="r_FRqhxzbS6lwTigyeX3-3" edge="1">
          <mxGeometry width="50" height="50" relative="1" as="geometry">
            <mxPoint x="250" y="350" as="sourcePoint" />
            <mxPoint x="300" y="300" as="targetPoint" />
          </mxGeometry>
        </mxCell>
        <mxCell id="r_FRqhxzbS6lwTigyeX3-10" value="" style="endArrow=none;html=1;rounded=0;exitX=1;exitY=0.3333333333333333;exitDx=0;exitDy=0;exitPerimeter=0;entryX=0;entryY=0.5;entryDx=0;entryDy=0;edgeStyle=orthogonalEdgeStyle;curved=1;" parent="1" source="r_FRqhxzbS6lwTigyeX3-1" target="r_FRqhxzbS6lwTigyeX3-4" edge="1">
          <mxGeometry width="50" height="50" relative="1" as="geometry">
            <mxPoint x="250" y="350" as="sourcePoint" />
            <mxPoint x="300" y="300" as="targetPoint" />
          </mxGeometry>
        </mxCell>
        <mxCell id="r_FRqhxzbS6lwTigyeX3-11" value="" style="endArrow=none;html=1;rounded=0;exitX=1;exitY=0.3333333333333333;exitDx=0;exitDy=0;exitPerimeter=0;entryX=0;entryY=0.5;entryDx=0;entryDy=0;edgeStyle=orthogonalEdgeStyle;curved=1;" parent="1" source="r_FRqhxzbS6lwTigyeX3-1" target="r_FRqhxzbS6lwTigyeX3-5" edge="1">
          <mxGeometry width="50" height="50" relative="1" as="geometry">
            <mxPoint x="250" y="350" as="sourcePoint" />
            <mxPoint x="300" y="300" as="targetPoint" />
          </mxGeometry>
        </mxCell>
        <mxCell id="r_FRqhxzbS6lwTigyeX3-12" value="" style="endArrow=none;html=1;rounded=0;entryX=0;entryY=0.5;entryDx=0;entryDy=0;edgeStyle=orthogonalEdgeStyle;curved=1;" parent="1" source="r_FRqhxzbS6lwTigyeX3-1" target="r_FRqhxzbS6lwTigyeX3-6" edge="1">
          <mxGeometry width="50" height="50" relative="1" as="geometry">
            <mxPoint x="250" y="350" as="sourcePoint" />
            <mxPoint x="300" y="300" as="targetPoint" />
          </mxGeometry>
        </mxCell>
        <mxCell id="r_FRqhxzbS6lwTigyeX3-13" value="" style="endArrow=none;html=1;rounded=0;entryX=0;entryY=0.5;entryDx=0;entryDy=0;edgeStyle=orthogonalEdgeStyle;curved=1;" parent="1" source="r_FRqhxzbS6lwTigyeX3-1" target="r_FRqhxzbS6lwTigyeX3-7" edge="1">
          <mxGeometry width="50" height="50" relative="1" as="geometry">
            <mxPoint x="250" y="450" as="sourcePoint" />
            <mxPoint x="300" y="400" as="targetPoint" />
          </mxGeometry>
        </mxCell>
        <mxCell id="r_FRqhxzbS6lwTigyeX3-14" value="" style="endArrow=none;html=1;rounded=0;entryX=0;entryY=0.5;entryDx=0;entryDy=0;edgeStyle=orthogonalEdgeStyle;elbow=vertical;curved=1;" parent="1" source="r_FRqhxzbS6lwTigyeX3-1" target="r_FRqhxzbS6lwTigyeX3-8" edge="1">
          <mxGeometry width="50" height="50" relative="1" as="geometry">
            <mxPoint x="250" y="350" as="sourcePoint" />
            <mxPoint x="300" y="300" as="targetPoint" />
          </mxGeometry>
        </mxCell>
        <mxCell id="r_FRqhxzbS6lwTigyeX3-16" value="&amp;lt;&amp;lt;Include&amp;gt;&amp;gt;" style="text;html=1;align=center;verticalAlign=middle;whiteSpace=wrap;rounded=0;" parent="1" vertex="1">
          <mxGeometry x="390" y="210" width="60" height="30" as="geometry" />
        </mxCell>
        <mxCell id="r_FRqhxzbS6lwTigyeX3-18" value="&amp;lt;&amp;lt;Extend&amp;gt;&amp;gt;" style="text;html=1;align=center;verticalAlign=middle;whiteSpace=wrap;rounded=0;" parent="1" vertex="1">
          <mxGeometry x="510" y="490" width="60" height="30" as="geometry" />
        </mxCell>
        <mxCell id="r_FRqhxzbS6lwTigyeX3-25" value="&amp;lt;&amp;lt;Include&amp;gt;&amp;gt;" style="text;html=1;align=center;verticalAlign=middle;whiteSpace=wrap;rounded=0;" parent="1" vertex="1">
          <mxGeometry x="420" y="660" width="60" height="30" as="geometry" />
        </mxCell>
        <mxCell id="r_FRqhxzbS6lwTigyeX3-26" value="&amp;lt;&amp;lt;Include&amp;gt;&amp;gt;" style="text;html=1;align=center;verticalAlign=middle;whiteSpace=wrap;rounded=0;" parent="1" vertex="1">
          <mxGeometry x="540" y="690" width="60" height="30" as="geometry" />
        </mxCell>
        <mxCell id="r_FRqhxzbS6lwTigyeX3-27" style="edgeStyle=orthogonalEdgeStyle;rounded=0;orthogonalLoop=1;jettySize=auto;html=1;entryX=0.993;entryY=0.405;entryDx=0;entryDy=0;entryPerimeter=0;exitX=0.5;exitY=1;exitDx=0;exitDy=0;curved=1;dashed=1;" parent="1" source="r_FRqhxzbS6lwTigyeX3-8" target="r_FRqhxzbS6lwTigyeX3-3" edge="1">
          <mxGeometry relative="1" as="geometry">
            <Array as="points">
              <mxPoint x="320" y="1080" />
              <mxPoint x="420" y="1080" />
              <mxPoint x="420" y="1070" />
              <mxPoint x="730" y="1070" />
              <mxPoint x="730" y="550" />
              <mxPoint x="750" y="550" />
              <mxPoint x="750" y="82" />
            </Array>
          </mxGeometry>
        </mxCell>
        <mxCell id="r_FRqhxzbS6lwTigyeX3-29" value="&amp;lt;&amp;lt;Include&amp;gt;&amp;gt;" style="text;html=1;align=center;verticalAlign=middle;whiteSpace=wrap;rounded=0;" parent="1" vertex="1">
          <mxGeometry x="730" y="650" width="60" height="30" as="geometry" />
        </mxCell>
        <mxCell id="r_FRqhxzbS6lwTigyeX3-30" value="Ativiments" style="shape=umlFrame;whiteSpace=wrap;html=1;pointerEvents=0;" parent="1" vertex="1">
          <mxGeometry x="110" y="45" width="700" height="1080" as="geometry" />
        </mxCell>
      </root>
    </mxGraphModel>
  </diagram>
</mxfile>
